<svg width="1200" height="760" viewBox="0 0 1200 760" fill="none" xmlns="http://www.w3.org/2000/svg">
  <defs>
    <linearGradient id="capBg" x1="0" y1="0" x2="1200" y2="760" gradientUnits="userSpaceOnUse">
      <stop stop-color="#0D1C31"/>
      <stop offset="1" stop-color="#091423"/>
    </linearGradient>
  </defs>
  <rect width="1200" height="760" rx="36" fill="url(#capBg)"/>
  <circle cx="300" cy="230" r="190" fill="#22D3EE" fill-opacity="0.10"/>
  <circle cx="920" cy="500" r="240" fill="#3B82F6" fill-opacity="0.10"/>
  <rect x="160" y="180" width="880" height="420" rx="30" fill="#0F223C" stroke="#334155" stroke-width="2"/>
  <rect x="225" y="235" width="540" height="300" rx="20" fill="#0B1220" stroke="#334155"/>
  <path d="M260 450C340 410 420 420 500 390C560 368 620 310 720 300" stroke="#22D3EE" stroke-width="4" stroke-linecap="round"/>
  <circle cx="420" cy="415" r="12" fill="#67E8F9"/>
  <circle cx="575" cy="368" r="12" fill="#38BDF8"/>
  <circle cx="680" cy="320" r="12" fill="#0EA5E9"/>
  <rect x="800" y="250" width="180" height="130" rx="16" fill="#0B1220" stroke="#334155"/>
  <rect x="820" y="278" width="140" height="12" rx="6" fill="#1E293B"/>
  <rect x="820" y="301" width="110" height="12" rx="6" fill="#1E293B"/>
  <rect x="820" y="324" width="130" height="12" rx="6" fill="#1E293B"/>
  <rect x="800" y="410" width="180" height="130" rx="16" fill="#0B1220" stroke="#334155"/>
  <circle cx="892" cy="474" r="36" fill="#0EA5E9" fill-opacity="0.18"/>
  <path d="M875 476L888 489L910 459" stroke="#67E8F9" stroke-width="7" stroke-linecap="round" stroke-linejoin="round"/>
</svg>
