<svg width="1200" height="760" viewBox="0 0 1200 760" fill="none" xmlns="http://www.w3.org/2000/svg">
  <defs>
    <linearGradient id="onbBg" x1="0" y1="0" x2="1200" y2="760" gradientUnits="userSpaceOnUse">
      <stop stop-color="#0E1E34"/>
      <stop offset="1" stop-color="#0A1322"/>
    </linearGradient>
    <linearGradient id="onbCard" x1="220" y1="220" x2="860" y2="530" gradientUnits="userSpaceOnUse">
      <stop stop-color="#1E3A5F"/>
      <stop offset="1" stop-color="#0F223C"/>
    </linearGradient>
  </defs>
  <rect width="1200" height="760" rx="36" fill="url(#onbBg)"/>
  <circle cx="170" cy="120" r="180" fill="#22D3EE" fill-opacity="0.10"/>
  <circle cx="1000" cy="580" r="220" fill="#3B82F6" fill-opacity="0.12"/>
  <rect x="170" y="180" width="860" height="390" rx="26" fill="url(#onbCard)" stroke="#334155" stroke-width="2"/>
  <rect x="230" y="245" width="420" height="250" rx="18" fill="#0F172A" stroke="#334155"/>
  <rect x="275" y="285" width="330" height="20" rx="10" fill="#1E293B"/>
  <rect x="275" y="327" width="290" height="16" rx="8" fill="#1E293B"/>
  <rect x="275" y="361" width="250" height="16" rx="8" fill="#1E293B"/>
  <rect x="710" y="230" width="260" height="170" rx="16" fill="#0B1220" stroke="#334155"/>
  <circle cx="840" cy="315" r="56" fill="#0EA5E9" fill-opacity="0.14"/>
  <path d="M812 316L833 337L869 297" stroke="#67E8F9" stroke-width="10" stroke-linecap="round" stroke-linejoin="round"/>
  <rect x="710" y="430" width="260" height="95" rx="14" fill="#0B1220" stroke="#334155"/>
  <rect x="745" y="462" width="190" height="14" rx="7" fill="#1E293B"/>
  <rect x="745" y="485" width="120" height="14" rx="7" fill="#1E293B"/>
</svg>
