<svg xmlns="http://www.w3.org/2000/svg" viewBox="0 0 24 24" fill="none">
  <path fill="currentColor" d="M12 2.25A9.75 9.75 0 1 0 21.75 12 9.76 9.76 0 0 0 12 2.25Zm0 18a8.25 8.25 0 1 1 8.25-8.25A8.26 8.26 0 0 1 12 20.25Z"/>
  <path fill="currentColor" d="M16.18 8.14a1.97 1.97 0 0 1 .14.72 4.28 4.28 0 0 1-.33 1.45l-1.72 5-1.84-5.35a2.67 2.67 0 0 0 .51-1.53 1.88 1.88 0 0 0-.2-.85 6.77 6.77 0 0 1 3.44.56ZM7.62 8.9c0-.15.01-.3.03-.45.43.02.83.04 1.17.04.19 0 .39 0 .6-.01-.05.28-.02.65.16 1.13l2.77 7.59A6.78 6.78 0 0 1 7.62 8.9Zm9.42 8.03 2.12-6.14A6.77 6.77 0 0 1 17.04 16.93ZM12 5.22c1.2 0 2.33.31 3.31.86-.11-.01-.23-.02-.36-.02-.61 0-1.55.08-1.55.08-.32.02-.28.5.04.47 0 0 .33-.04.69-.06l2.2 6.04 1.32-3.94c.2-.6.27-1.05.27-1.45 0-.15-.01-.3-.03-.43A6.76 6.76 0 0 1 12 5.22Zm-5.5 1.47c-.26.49-.41 1.06-.41 1.71 0 .67.13 1.42.54 2.44l2.74 7.47A6.78 6.78 0 0 1 6.5 6.69Z"/>
</svg>
