<svg width="128" height="128" viewBox="0 0 128 128" xmlns="http://www.w3.org/2000/svg">
  <defs>
    <linearGradient id="shieldGrad2" x1="0%" y1="0%" x2="100%" y2="100%">
      <stop offset="0%" stop-color="#3AB0FF"/>
      <stop offset="100%" stop-color="#2563EB"/>
    </linearGradient>
  </defs>
  <path d="M64 12 L104 28 V58 C104 82 86 102 64 112 C42 102 24 82 24 58 V28 Z" fill="url(#shieldGrad2)"/>
  <g fill="#ffffff" opacity="0.95">
    <rect x="48" y="60" width="32" height="28" rx="6"/>
    <path d="M54 60 V52 C54 45 59 40 64 40 C69 40 74 45 74 52 V60 H68 V52 C68 49 66 46 64 46 C62 46 60 49 60 52 V60 Z"/>
    <circle cx="64" cy="74" r="4" opacity="0.9"/>
  </g>
</svg>